<?xml version="1.0" encoding="utf-8"?>
<!-- Generator: Adobe Illustrator 16.0.0, SVG Export Plug-In . SVG Version: 6.00 Build 0)  -->
<!DOCTYPE svg PUBLIC "-//W3C//DTD SVG 1.1//EN" "http://www.w3.org/Graphics/SVG/1.1/DTD/svg11.dtd">
<svg version="1.1" id="Layer_1" xmlns="http://www.w3.org/2000/svg" xmlns:xlink="http://www.w3.org/1999/xlink" x="0px" y="0px"
	 width="48px" height="48px" viewBox="0 0 48 48" enable-background="new 0 0 48 48" xml:space="preserve" fill="#3081A9">
<path d="M46.237,24.391C43.87,15.003,38.173,3.994,25.505,3.182V2.504C25.505,1.673,24.829,1,23.997,1
	c-0.83,0-1.506,0.673-1.506,1.504v0.673C9.205,3.944,4.135,14.982,1.763,24.391c-0.135,0.531,0.551,0.852,0.896,0.426
	c1.403-1.73,3.54-2.839,5.945-2.839c3.328,0,6.166,2.114,7.242,5.07c0.158,0.439,0.752,0.439,0.91,0
	c0.91-2.502,3.063-4.4,5.734-4.924V41.31c0,1.512-1.216,2.743-2.817,2.743c-1.515,0-2.73-1.231-2.73-2.743v-1.916
	c0-0.831-0.675-1.504-1.506-1.504s-1.507,0.673-1.507,1.504v1.916c0,3.172,2.571,5.751,5.83,5.751c3.173,0,5.744-2.579,5.744-5.751
	V22.126c2.67,0.529,4.829,2.424,5.737,4.921c0.159,0.439,0.769,0.439,0.928,0c1.076-2.957,3.915-5.07,7.243-5.07
	c2.405,0,4.534,1.109,5.938,2.839C45.697,25.242,46.373,24.922,46.237,24.391z"/>
</svg>
