<svg width="1920" height="912" xmlns="http://www.w3.org/2000/svg"><g><path d="M-32,-34L-64,113L-41,41Z" fill="#f7fbff" stroke="#f7fbff"/><path d="M-32,-34L-41,41L17,44Z" fill="#f7faff" stroke="#f7faff"/><path d="M-32,-34L17,44L66,-59Z" fill="#f6f9ff" stroke="#f6f9ff"/><path d="M66,-59L17,44L140,49Z" fill="#f1f7fd" stroke="#f1f7fd"/><path d="M66,-59L140,49L161,-55Z" fill="#eff5fb" stroke="#eff5fb"/><path d="M66,-59L161,-55L214,-64Z" fill="#eef4fb" stroke="#eef4fb"/><path d="M161,-55L140,49L237,66Z" fill="#eaf3fa" stroke="#eaf3fa"/><path d="M161,-55L237,66L214,-64Z" fill="#eaf2f9" stroke="#eaf2f9"/><path d="M214,-64L237,66L306,-54Z" fill="#e7f0f7" stroke="#e7f0f7"/><path d="M214,-64L306,-54L470,-72Z" fill="#e2edf5" stroke="#e2edf5"/><path d="M306,-54L237,66L312,48Z" fill="#e3eff6" stroke="#e3eff6"/><path d="M306,-54L312,48L396,22Z" fill="#e1edf5" stroke="#e1edf5"/><path d="M306,-54L396,22L426,-23Z" fill="#dfecf4" stroke="#dfecf4"/><path d="M306,-54L426,-23L470,-72Z" fill="#dceaf3" stroke="#dceaf3"/><path d="M426,-23L396,22L473,16Z" fill="#d9e9f2" stroke="#d9e9f2"/><path d="M426,-23L473,16L470,-72Z" fill="#d7e7f2" stroke="#d7e7f2"/><path d="M470,-72L473,16L568,-53Z" fill="#d1e5f1" stroke="#d1e5f1"/><path d="M470,-72L568,-53L790,-46Z" fill="#c6dfee" stroke="#c6dfee"/><path d="M470,-72L790,-46L973,-75Z" fill="#b8d8eb" stroke="#b8d8eb"/><path d="M568,-53L473,16L587,63Z" fill="#cde3f0" stroke="#cde3f0"/><path d="M568,-53L587,63L685,27Z" fill="#c5dfee" stroke="#c5dfee"/><path d="M568,-53L685,27L693,-24Z" fill="#c2dded" stroke="#c2dded"/><path d="M568,-53L693,-24L790,-46Z" fill="#bedbed" stroke="#bedbed"/><path d="M693,-24L685,27L787,59Z" fill="#b9d9ec" stroke="#b9d9ec"/><path d="M693,-24L787,59L790,-46Z" fill="#b6d7eb" stroke="#b6d7eb"/><path d="M790,-46L787,59L837,33Z" fill="#b1d5ea" stroke="#b1d5ea"/><path d="M790,-46L837,33L859,-19Z" fill="#b1d3e9" stroke="#b1d3e9"/><path d="M790,-46L859,-19L973,-75Z" fill="#add1e7" stroke="#add1e7"/><path d="M859,-19L837,33L974,51Z" fill="#aad0e7" stroke="#aad0e7"/><path d="M859,-19L974,51L973,-75Z" fill="#a9cde5" stroke="#a9cde5"/><path d="M973,-75L974,51L1020,-50Z" fill="#a5cae4" stroke="#a5cae4"/><path d="M973,-75L1020,-50L1147,-38Z" fill="#a0c7e2" stroke="#a0c7e2"/><path d="M973,-75L1147,-38L1227,-35Z" fill="#9bc3df" stroke="#9bc3df"/><path d="M973,-75L1227,-35L1420,-62Z" fill="#95bddc" stroke="#95bddc"/><path d="M973,-75L1420,-62L1546,-71Z" fill="#90b6d7" stroke="#90b6d7"/><path d="M1020,-50L974,51L1039,34Z" fill="#a2c9e3" stroke="#a2c9e3"/><path d="M1020,-50L1039,34L1147,-38Z" fill="#9fc6e1" stroke="#9fc6e1"/><path d="M1147,-38L1039,34L1133,40Z" fill="#9bc3e0" stroke="#9bc3e0"/><path d="M1147,-38L1133,40L1195,30Z" fill="#97c0de" stroke="#97c0de"/><path d="M1147,-38L1195,30L1227,-35Z" fill="#96bedd" stroke="#96bedd"/><path d="M1227,-35L1195,30L1328,-23Z" fill="#93bada" stroke="#93bada"/><path d="M1227,-35L1328,-23L1420,-62Z" fill="#8fb6d7" stroke="#8fb6d7"/><path d="M1328,-23L1195,30L1334,70Z" fill="#8fb8d9" stroke="#8fb8d9"/><path d="M1328,-23L1334,70L1401,57Z" fill="#8ab4d6" stroke="#8ab4d6"/><path d="M1328,-23L1401,57L1420,-62Z" fill="#8cb2d4" stroke="#8cb2d4"/><path d="M1420,-62L1401,57L1472,-26Z" fill="#89afd2" stroke="#89afd2"/><path d="M1420,-62L1472,-26L1546,-71Z" fill="#87acd0" stroke="#87acd0"/><path d="M1472,-26L1401,57L1482,62Z" fill="#86aed1" stroke="#86aed1"/><path d="M1472,-26L1482,62L1575,26Z" fill="#84aacf" stroke="#84aacf"/><path d="M1472,-26L1575,26L1546,-71Z" fill="#84a9ce" stroke="#84a9ce"/><path d="M1546,-71L1575,26L1674,-68Z" fill="#80a4cb" stroke="#80a4cb"/><path d="M1546,-71L1674,-68L2007,-63Z" fill="#809bc5" stroke="#809bc5"/><path d="M1674,-68L1575,26L1668,47Z" fill="#80a2c9" stroke="#80a2c9"/><path d="M1674,-68L1668,47L1726,56Z" fill="#7f9ec7" stroke="#7f9ec7"/><path d="M1674,-68L1726,56L1763,-63Z" fill="#809cc6" stroke="#809cc6"/><path d="M1674,-68L1763,-63L2007,-63Z" fill="#8096c2" stroke="#8096c2"/><path d="M1763,-63L1726,56L1816,29Z" fill="#7f99c4" stroke="#7f99c4"/><path d="M1763,-63L1816,29L1857,-26Z" fill="#8097c2" stroke="#8097c2"/><path d="M1763,-63L1857,-26L2007,-63Z" fill="#8093bf" stroke="#8093bf"/><path d="M1857,-26L1816,29L1921,33Z" fill="#7f93c0" stroke="#7f93c0"/><path d="M1857,-26L1921,33L1951,-33Z" fill="#8090be" stroke="#8090be"/><path d="M1857,-26L1951,-33L2007,-63Z" fill="#808fbc" stroke="#808fbc"/><path d="M1951,-33L1921,33L2029,20Z" fill="#7f8dbb" stroke="#7f8dbb"/><path d="M1951,-33L2029,20L2007,-63Z" fill="#808bba" stroke="#808bba"/><path d="M-41,41L-64,113L17,44Z" fill="#f4faff" stroke="#f4faff"/><path d="M17,44L-64,113L42,133Z" fill="#eff9ff" stroke="#eff9ff"/><path d="M17,44L42,133L140,49Z" fill="#edf7fd" stroke="#edf7fd"/><path d="M140,49L42,133L152,116Z" fill="#e8f5fc" stroke="#e8f5fc"/><path d="M140,49L152,116L237,66Z" fill="#e5f3fa" stroke="#e5f3fa"/><path d="M237,66L152,116L199,154Z" fill="#e1f2f9" stroke="#e1f2f9"/><path d="M237,66L199,154L316,139Z" fill="#ddf0f7" stroke="#ddf0f7"/><path d="M237,66L316,139L312,48Z" fill="#ddeff6" stroke="#ddeff6"/><path d="M312,48L316,139L415,145Z" fill="#d8edf4" stroke="#d8edf4"/><path d="M312,48L415,145L396,22Z" fill="#d9ecf4" stroke="#d9ecf4"/><path d="M396,22L415,145L473,16Z" fill="#d5e9f2" stroke="#d5e9f2"/><path d="M473,16L415,145L485,159Z" fill="#cde7f2" stroke="#cde7f2"/><path d="M473,16L485,159L587,63Z" fill="#cae4f0" stroke="#cae4f0"/><path d="M587,63L485,159L597,145Z" fill="#c2e2ef" stroke="#c2e2ef"/><path d="M587,63L597,145L694,135Z" fill="#bbdeee" stroke="#bbdeee"/><path d="M587,63L694,135L685,27Z" fill="#bbdded" stroke="#bbdded"/><path d="M685,27L694,135L755,119Z" fill="#b4daec" stroke="#b4daec"/><path d="M685,27L755,119L787,59Z" fill="#b2d8eb" stroke="#b2d8eb"/><path d="M787,59L755,119L859,115Z" fill="#abd5ea" stroke="#abd5ea"/><path d="M787,59L859,115L837,33Z" fill="#abd3e9" stroke="#abd3e9"/><path d="M837,33L859,115L974,51Z" fill="#a7d0e7" stroke="#a7d0e7"/><path d="M974,51L859,115L968,157Z" fill="#a0cde5" stroke="#a0cde5"/><path d="M974,51L968,157L1044,139Z" fill="#9bcae3" stroke="#9bcae3"/><path d="M974,51L1044,139L1039,34Z" fill="#9cc8e3" stroke="#9cc8e3"/><path d="M1039,34L1044,139L1097,129Z" fill="#97c6e1" stroke="#97c6e1"/><path d="M1039,34L1097,129L1133,40Z" fill="#97c4e0" stroke="#97c4e0"/><path d="M1133,40L1097,129L1211,117Z" fill="#91c1de" stroke="#91c1de"/><path d="M1133,40L1211,117L1195,30Z" fill="#92bfdd" stroke="#92bfdd"/><path d="M1195,30L1211,117L1334,70Z" fill="#8dbbda" stroke="#8dbbda"/><path d="M1334,70L1211,117L1328,156Z" fill="#87b8d8" stroke="#87b8d8"/><path d="M1334,70L1328,156L1368,154Z" fill="#84b5d6" stroke="#84b5d6"/><path d="M1334,70L1368,154L1401,57Z" fill="#85b3d5" stroke="#85b3d5"/><path d="M1401,57L1368,154L1482,128Z" fill="#81b0d3" stroke="#81b0d3"/><path d="M1401,57L1482,128L1482,62Z" fill="#81add1" stroke="#81add1"/><path d="M1482,62L1482,128L1566,107Z" fill="#7daacf" stroke="#7daacf"/><path d="M1482,62L1566,107L1575,26Z" fill="#7ea8ce" stroke="#7ea8ce"/><path d="M1575,26L1566,107L1668,47Z" fill="#7ba4cb" stroke="#7ba4cb"/><path d="M1668,47L1566,107L1648,136Z" fill="#78a2ca" stroke="#78a2ca"/><path d="M1668,47L1648,136L1726,56Z" fill="#799fc8" stroke="#799fc8"/><path d="M1726,56L1648,136L1756,146Z" fill="#769dc6" stroke="#769dc6"/><path d="M1726,56L1756,146L1816,29Z" fill="#799ac4" stroke="#799ac4"/><path d="M1816,29L1756,146L1871,151Z" fill="#7796c2" stroke="#7796c2"/><path d="M1816,29L1871,151L1921,33Z" fill="#7a93bf" stroke="#7a93bf"/><path d="M1921,33L1871,151L1912,165Z" fill="#7691be" stroke="#7691be"/><path d="M1921,33L1912,165L2047,154Z" fill="#768dbc" stroke="#768dbc"/><path d="M1921,33L2047,154L2029,20Z" fill="#7a8bba" stroke="#7a8bba"/><path d="M-64,113L-66,656L-52,291Z" fill="#bee5ff" stroke="#bee5ff"/><path d="M-64,113L-52,291L-47,228Z" fill="#e4f8ff" stroke="#e4f8ff"/><path d="M-64,113L-47,228L42,133Z" fill="#ecfaff" stroke="#ecfaff"/><path d="M42,133L-47,228L74,214Z" fill="#e4f7ff" stroke="#e4f7ff"/><path d="M42,133L74,214L152,116Z" fill="#e5f6fc" stroke="#e5f6fc"/><path d="M152,116L74,214L161,245Z" fill="#ddf4fb" stroke="#ddf4fb"/><path d="M152,116L161,245L199,154Z" fill="#def3fa" stroke="#def3fa"/><path d="M199,154L161,245L238,238Z" fill="#d3eef9" stroke="#d3eef9"/><path d="M199,154L238,238L316,139Z" fill="#d8f0f7" stroke="#d8f0f7"/><path d="M316,139L238,238L335,209Z" fill="#d1edf6" stroke="#d1edf6"/><path d="M316,139L335,209L390,203Z" fill="#d1edf4" stroke="#d1edf4"/><path d="M316,139L390,203L415,145Z" fill="#d1ecf4" stroke="#d1ecf4"/><path d="M415,145L390,203L485,159Z" fill="#cbe9f2" stroke="#cbe9f2"/><path d="M485,159L390,203L510,250Z" fill="#c1e4f2" stroke="#c1e4f2"/><path d="M485,159L510,250L597,145Z" fill="#bfe3f0" stroke="#bfe3f0"/><path d="M597,145L510,250L611,214Z" fill="#b6dfef" stroke="#b6dfef"/><path d="M597,145L611,214L694,135Z" fill="#b6deee" stroke="#b6deee"/><path d="M694,135L611,214L681,225Z" fill="#afdbed" stroke="#afdbed"/><path d="M694,135L681,225L773,224Z" fill="#a8d8ec" stroke="#a8d8ec"/><path d="M694,135L773,224L755,119Z" fill="#abd8eb" stroke="#abd8eb"/><path d="M755,119L773,224L859,115Z" fill="#a7d5ea" stroke="#a7d5ea"/><path d="M859,115L773,224L875,202Z" fill="#a1d3e9" stroke="#a1d3e9"/><path d="M859,115L875,202L968,157Z" fill="#9ecfe6" stroke="#9ecfe6"/><path d="M968,157L875,202L974,205Z" fill="#98cce5" stroke="#98cce5"/><path d="M968,157L974,205L1044,139Z" fill="#97cae3" stroke="#97cae3"/><path d="M1044,139L974,205L1057,245Z" fill="#8fc6e2" stroke="#8fc6e2"/><path d="M1044,139L1057,245L1130,218Z" fill="#8ac3e1" stroke="#8ac3e1"/><path d="M1044,139L1130,218L1097,129Z" fill="#8fc4e0" stroke="#8fc4e0"/><path d="M1097,129L1130,218L1211,117Z" fill="#8cc1de" stroke="#8cc1de"/><path d="M1211,117L1130,218L1187,227Z" fill="#86bfdd" stroke="#86bfdd"/><path d="M1211,117L1187,227L1289,198Z" fill="#85bcdb" stroke="#85bcdb"/><path d="M1211,117L1289,198L1328,156Z" fill="#85b9d9" stroke="#85b9d9"/><path d="M1328,156L1289,198L1408,210Z" fill="#7eb4d6" stroke="#7eb4d6"/><path d="M1328,156L1408,210L1368,154Z" fill="#7eb3d5" stroke="#7eb3d5"/><path d="M1368,154L1408,210L1482,128Z" fill="#7cb0d3" stroke="#7cb0d3"/><path d="M1482,128L1408,210L1480,231Z" fill="#77acd1" stroke="#77acd1"/><path d="M1482,128L1480,231L1593,204Z" fill="#74a9cf" stroke="#74a9cf"/><path d="M1482,128L1593,204L1566,107Z" fill="#77a8cd" stroke="#77a8cd"/><path d="M1566,107L1593,204L1648,136Z" fill="#74a4cb" stroke="#74a4cb"/><path d="M1648,136L1593,204L1686,243Z" fill="#6ea0c9" stroke="#6ea0c9"/><path d="M1648,136L1686,243L1727,209Z" fill="#6d9dc7" stroke="#6d9dc7"/><path d="M1648,136L1727,209L1756,146Z" fill="#729dc6" stroke="#729dc6"/><path d="M1756,146L1727,209L1844,235Z" fill="#6d97c3" stroke="#6d97c3"/><path d="M1756,146L1844,235L1871,151Z" fill="#7196c1" stroke="#7196c1"/><path d="M1871,151L1844,235L1912,165Z" fill="#7093bf" stroke="#7093bf"/><path d="M1912,165L1844,235L1927,249Z" fill="#688dbe" stroke="#688dbe"/><path d="M1912,165L1927,249L2018,224Z" fill="#698abc" stroke="#698abc"/><path d="M1912,165L2018,224L2047,154Z" fill="#718bba" stroke="#718bba"/><path d="M2047,154L2018,224L2030,290Z" fill="#6683b8" stroke="#6683b8"/><path d="M2047,154L2030,290L2027,376Z" fill="#587cb8" stroke="#587cb8"/><path d="M2047,154L2027,376L2049,750Z" fill="#3467b3" stroke="#3467b3"/><path d="M-47,228L-52,291L30,306Z" fill="#d1eeff" stroke="#d1eeff"/><path d="M-47,228L30,306L74,214Z" fill="#d5f0ff" stroke="#d5f0ff"/><path d="M74,214L30,306L153,289Z" fill="#cbebfd" stroke="#cbebfd"/><path d="M74,214L153,289L161,245Z" fill="#ceecfb" stroke="#ceecfb"/><path d="M161,245L153,289L205,306Z" fill="#c3e6fa" stroke="#c3e6fa"/><path d="M161,245L205,306L238,238Z" fill="#c6e7f9" stroke="#c6e7f9"/><path d="M238,238L205,306L310,319Z" fill="#bbe2f7" stroke="#bbe2f7"/><path d="M238,238L310,319L335,209Z" fill="#c2e5f6" stroke="#c2e5f6"/><path d="M335,209L310,319L399,287Z" fill="#bae1f4" stroke="#bae1f4"/><path d="M335,209L399,287L390,203Z" fill="#c2e5f4" stroke="#c2e5f4"/><path d="M390,203L399,287L510,250Z" fill="#b9e0f2" stroke="#b9e0f2"/><path d="M510,250L399,287L485,324Z" fill="#abd9f1" stroke="#abd9f1"/><path d="M510,250L485,324L594,287Z" fill="#a4d5f0" stroke="#a4d5f0"/><path d="M510,250L594,287L611,214Z" fill="#a9d8ef" stroke="#a9d8ef"/><path d="M611,214L594,287L681,225Z" fill="#a5d6ee" stroke="#a5d6ee"/><path d="M681,225L594,287L668,322Z" fill="#9ad1ed" stroke="#9ad1ed"/><path d="M681,225L668,322L764,317Z" fill="#91ccec" stroke="#91ccec"/><path d="M681,225L764,317L773,224Z" fill="#96cfeb" stroke="#96cfeb"/><path d="M773,224L764,317L862,326Z" fill="#87c7ea" stroke="#87c7ea"/><path d="M773,224L862,326L875,202Z" fill="#8fcae9" stroke="#8fcae9"/><path d="M875,202L862,326L922,331Z" fill="#81c2e7" stroke="#81c2e7"/><path d="M875,202L922,331L974,205Z" fill="#89c5e6" stroke="#89c5e6"/><path d="M974,205L922,331L1018,345Z" fill="#79bde4" stroke="#79bde4"/><path d="M974,205L1018,345L1057,245Z" fill="#7dbee3" stroke="#7dbee3"/><path d="M1057,245L1018,345L1131,297Z" fill="#71b7e1" stroke="#71b7e1"/><path d="M1057,245L1131,297L1130,218Z" fill="#7abae0" stroke="#7abae0"/><path d="M1130,218L1131,297L1187,227Z" fill="#78b8de" stroke="#78b8de"/><path d="M1187,227L1131,297L1222,286Z" fill="#70b3dd" stroke="#70b3dd"/><path d="M1187,227L1222,286L1289,198Z" fill="#76b5db" stroke="#76b5db"/><path d="M1289,198L1222,286L1310,306Z" fill="#6daed9" stroke="#6daed9"/><path d="M1289,198L1310,306L1396,292Z" fill="#69aad7" stroke="#69aad7"/><path d="M1289,198L1396,292L1408,210Z" fill="#70add5" stroke="#70add5"/><path d="M1408,210L1396,292L1480,231Z" fill="#6aa7d2" stroke="#6aa7d2"/><path d="M1480,231L1396,292L1468,298Z" fill="#61a2d2" stroke="#61a2d2"/><path d="M1480,231L1468,298L1567,308Z" fill="#5c9ecf" stroke="#5c9ecf"/><path d="M1480,231L1567,308L1593,204Z" fill="#639fcd" stroke="#639fcd"/><path d="M1593,204L1567,308L1686,243Z" fill="#5e9aca" stroke="#5e9aca"/><path d="M1686,243L1567,308L1693,321Z" fill="#5493c9" stroke="#5493c9"/><path d="M1686,243L1693,321L1731,322Z" fill="#528fc7" stroke="#528fc7"/><path d="M1686,243L1731,322L1727,209Z" fill="#5c93c6" stroke="#5c93c6"/><path d="M1727,209L1731,322L1844,235Z" fill="#5d90c4" stroke="#5d90c4"/><path d="M1844,235L1731,322L1842,340Z" fill="#5188c2" stroke="#5188c2"/><path d="M1844,235L1842,340L1927,249Z" fill="#5887bf" stroke="#5887bf"/><path d="M1927,249L1842,340L1922,336Z" fill="#4f81be" stroke="#4f81be"/><path d="M1927,249L1922,336L2030,290Z" fill="#537fbc" stroke="#537fbc"/><path d="M1927,249L2030,290L2018,224Z" fill="#5d82ba" stroke="#5d82ba"/><path d="M-52,291L-66,656L-35,497Z" fill="#a5d3f6" stroke="#a5d3f6"/><path d="M-52,291L-35,497L-29,381Z" fill="#b5dffd" stroke="#b5dffd"/><path d="M-52,291L-29,381L30,306Z" fill="#c3e7ff" stroke="#c3e7ff"/><path d="M30,306L-29,381L33,426Z" fill="#b6e0fe" stroke="#b6e0fe"/><path d="M30,306L33,426L141,417Z" fill="#afdcfc" stroke="#afdcfc"/><path d="M30,306L141,417L153,289Z" fill="#b8e1fc" stroke="#b8e1fc"/><path d="M153,289L141,417L205,306Z" fill="#b4dffa" stroke="#b4dffa"/><path d="M205,306L141,417L233,404Z" fill="#a9d9f8" stroke="#a9d9f8"/><path d="M205,306L233,404L310,319Z" fill="#addbf7" stroke="#addbf7"/><path d="M310,319L233,404L290,400Z" fill="#a3d6f6" stroke="#a3d6f6"/><path d="M310,319L290,400L396,426Z" fill="#9fd3f3" stroke="#9fd3f3"/><path d="M310,319L396,426L399,287Z" fill="#a5d6f4" stroke="#a5d6f4"/><path d="M399,287L396,426L485,324Z" fill="#9fd3f2" stroke="#9fd3f2"/><path d="M485,324L396,426L489,390Z" fill="#93cdf1" stroke="#93cdf1"/><path d="M485,324L489,390L600,396Z" fill="#8ecbf0" stroke="#8ecbf0"/><path d="M485,324L600,396L594,287Z" fill="#93ceef" stroke="#93ceef"/><path d="M594,287L600,396L668,322Z" fill="#8dcbee" stroke="#8dcbee"/><path d="M668,322L600,396L698,388Z" fill="#81c4ed" stroke="#81c4ed"/><path d="M668,322L698,388L764,317Z" fill="#81c5ec" stroke="#81c5ec"/><path d="M764,317L698,388L743,397Z" fill="#78c0eb" stroke="#78c0eb"/><path d="M764,317L743,397L833,409Z" fill="#72bde9" stroke="#72bde9"/><path d="M764,317L833,409L862,326Z" fill="#75bee9" stroke="#75bee9"/><path d="M862,326L833,409L922,331Z" fill="#70bae7" stroke="#70bae7"/><path d="M922,331L833,409L940,421Z" fill="#67b4e5" stroke="#67b4e5"/><path d="M922,331L940,421L1018,345Z" fill="#67b4e5" stroke="#67b4e5"/><path d="M1018,345L940,421L1022,403Z" fill="#60aee1" stroke="#60aee1"/><path d="M1018,345L1022,403L1119,409Z" fill="#5cabe0" stroke="#5cabe0"/><path d="M1018,345L1119,409L1131,297Z" fill="#61aee0" stroke="#61aee0"/><path d="M1131,297L1119,409L1217,423Z" fill="#56a7dd" stroke="#56a7dd"/><path d="M1131,297L1217,423L1222,286Z" fill="#5eaadd" stroke="#5eaadd"/><path d="M1222,286L1217,423L1310,306Z" fill="#5aa6da" stroke="#5aa6da"/><path d="M1310,306L1217,423L1329,433Z" fill="#4d9dd7" stroke="#4d9dd7"/><path d="M1310,306L1329,433L1378,406Z" fill="#4b9ad5" stroke="#4b9ad5"/><path d="M1310,306L1378,406L1396,292Z" fill="#559fd5" stroke="#559fd5"/><path d="M1396,292L1378,406L1468,400Z" fill="#4a98d3" stroke="#4a98d3"/><path d="M1396,292L1468,400L1468,298Z" fill="#529bd2" stroke="#529bd2"/><path d="M1468,298L1468,400L1550,382Z" fill="#4793cf" stroke="#4793cf"/><path d="M1468,298L1550,382L1567,308Z" fill="#4e95ce" stroke="#4e95ce"/><path d="M1567,308L1550,382L1658,407Z" fill="#418dcb" stroke="#418dcb"/><path d="M1567,308L1658,407L1693,321Z" fill="#458cc9" stroke="#458cc9"/><path d="M1693,321L1658,407L1760,395Z" fill="#3e84c6" stroke="#3e84c6"/><path d="M1693,321L1760,395L1731,322Z" fill="#4587c6" stroke="#4587c6"/><path d="M1731,322L1760,395L1842,340Z" fill="#4382c3" stroke="#4382c3"/><path d="M1842,340L1760,395L1834,403Z" fill="#3d7dc1" stroke="#3d7dc1"/><path d="M1842,340L1834,403L1932,399Z" fill="#3d78be" stroke="#3d78be"/><path d="M1842,340L1932,399L1922,336Z" fill="#417abe" stroke="#417abe"/><path d="M1922,336L1932,399L2027,376Z" fill="#3f74bb" stroke="#3f74bb"/><path d="M1922,336L2027,376L2030,290Z" fill="#4877ba" stroke="#4877ba"/><path d="M-29,381L-35,497L33,426Z" fill="#abd8fa" stroke="#abd8fa"/><path d="M33,426L-35,497L70,512Z" fill="#a0d0f5" stroke="#a0d0f5"/><path d="M33,426L70,512L141,417Z" fill="#a1d2f6" stroke="#a1d2f6"/><path d="M141,417L70,512L158,508Z" fill="#9accf2" stroke="#9accf2"/><path d="M141,417L158,508L233,404Z" fill="#9dd0f3" stroke="#9dd0f3"/><path d="M233,404L158,508L243,519Z" fill="#94caf0" stroke="#94caf0"/><path d="M233,404L243,519L290,400Z" fill="#98cdf1" stroke="#98cdf1"/><path d="M290,400L243,519L334,506Z" fill="#8fc7ed" stroke="#8fc7ed"/><path d="M290,400L334,506L396,426Z" fill="#92c9ee" stroke="#92c9ee"/><path d="M396,426L334,506L400,511Z" fill="#89c3ea" stroke="#89c3ea"/><path d="M396,426L400,511L524,500Z" fill="#83c0e9" stroke="#83c0e9"/><path d="M396,426L524,500L489,390Z" fill="#87c4eb" stroke="#87c4eb"/><path d="M489,390L524,500L600,396Z" fill="#82c2ea" stroke="#82c2ea"/><path d="M600,396L524,500L593,500Z" fill="#77bbe7" stroke="#77bbe7"/><path d="M600,396L593,500L687,485Z" fill="#72b9e6" stroke="#72b9e6"/><path d="M600,396L687,485L698,388Z" fill="#76bce8" stroke="#76bce8"/><path d="M698,388L687,485L743,397Z" fill="#71b9e7" stroke="#71b9e7"/><path d="M743,397L687,485L763,477Z" fill="#69b4e4" stroke="#69b4e4"/><path d="M743,397L763,477L833,409Z" fill="#68b5e5" stroke="#68b5e5"/><path d="M833,409L763,477L826,480Z" fill="#61afe2" stroke="#61afe2"/><path d="M833,409L826,480L940,421Z" fill="#60afe2" stroke="#60afe2"/><path d="M940,421L826,480L968,467Z" fill="#59aadf" stroke="#59aadf"/><path d="M940,421L968,467L1022,403Z" fill="#59a9de" stroke="#59a9de"/><path d="M1022,403L968,467L1054,473Z" fill="#53a5dc" stroke="#53a5dc"/><path d="M1022,403L1054,473L1119,409Z" fill="#53a5dc" stroke="#53a5dc"/><path d="M1119,409L1054,473L1098,469Z" fill="#4da0d9" stroke="#4da0d9"/><path d="M1119,409L1098,469L1195,502Z" fill="#479cd7" stroke="#479cd7"/><path d="M1119,409L1195,502L1217,423Z" fill="#489cd7" stroke="#489cd7"/><path d="M1217,423L1195,502L1309,475Z" fill="#4095d2" stroke="#4095d2"/><path d="M1217,423L1309,475L1329,433Z" fill="#4295d2" stroke="#4295d2"/><path d="M1329,433L1309,475L1380,520Z" fill="#398dcd" stroke="#398dcd"/><path d="M1329,433L1380,520L1378,406Z" fill="#3d8fce" stroke="#3d8fce"/><path d="M1378,406L1380,520L1468,400Z" fill="#3c8dcd" stroke="#3c8dcd"/><path d="M1468,400L1380,520L1501,478Z" fill="#3587c9" stroke="#3587c9"/><path d="M1468,400L1501,478L1550,382Z" fill="#3b8acb" stroke="#3b8acb"/><path d="M1550,382L1501,478L1600,468Z" fill="#3484c7" stroke="#3484c7"/><path d="M1550,382L1600,468L1658,407Z" fill="#3684c6" stroke="#3684c6"/><path d="M1658,407L1600,468L1674,490Z" fill="#2f7cc2" stroke="#2f7cc2"/><path d="M1658,407L1674,490L1760,395Z" fill="#337cc1" stroke="#337cc1"/><path d="M1760,395L1674,490L1729,512Z" fill="#2d76bd" stroke="#2d76bd"/><path d="M1760,395L1729,512L1845,517Z" fill="#2b71ba" stroke="#2b71ba"/><path d="M1760,395L1845,517L1834,403Z" fill="#3274bc" stroke="#3274bc"/><path d="M1834,403L1845,517L1952,474Z" fill="#2d6cb7" stroke="#2d6cb7"/><path d="M1834,403L1952,474L1932,399Z" fill="#3470b9" stroke="#3470b9"/><path d="M1932,399L1952,474L2027,376Z" fill="#366db7" stroke="#366db7"/><path d="M2027,376L1952,474L1996,497Z" fill="#3067b3" stroke="#3067b3"/><path d="M2027,376L1996,497L2038,699Z" fill="#225bac" stroke="#225bac"/><path d="M2027,376L2038,699L2049,750Z" fill="#194ca3" stroke="#194ca3"/><path d="M-35,497L-66,656L-21,574Z" fill="#95c4ed" stroke="#95c4ed"/><path d="M-35,497L-21,574L70,512Z" fill="#98caf2" stroke="#98caf2"/><path d="M70,512L-21,574L33,598Z" fill="#92c4ee" stroke="#92c4ee"/><path d="M70,512L33,598L134,574Z" fill="#8fc2ec" stroke="#8fc2ec"/><path d="M70,512L134,574L158,508Z" fill="#90c5ee" stroke="#90c5ee"/><path d="M158,508L134,574L216,578Z" fill="#89c0ea" stroke="#89c0ea"/><path d="M158,508L216,578L243,519Z" fill="#8ac1eb" stroke="#8ac1eb"/><path d="M243,519L216,578L339,577Z" fill="#83bce7" stroke="#83bce7"/><path d="M243,519L339,577L334,506Z" fill="#83bee8" stroke="#83bee8"/><path d="M334,506L339,577L400,511Z" fill="#80bde7" stroke="#80bde7"/><path d="M400,511L339,577L377,591Z" fill="#7cb8e3" stroke="#7cb8e3"/><path d="M400,511L377,591L506,562Z" fill="#77b6e2" stroke="#77b6e2"/><path d="M400,511L506,562L524,500Z" fill="#76b8e4" stroke="#76b8e4"/><path d="M524,500L506,562L598,566Z" fill="#6cb1e1" stroke="#6cb1e1"/><path d="M524,500L598,566L593,500Z" fill="#6db3e2" stroke="#6db3e2"/><path d="M593,500L598,566L687,485Z" fill="#67b1e1" stroke="#67b1e1"/><path d="M687,485L598,566L678,600Z" fill="#5faade" stroke="#5faade"/><path d="M687,485L678,600L746,586Z" fill="#59a7dc" stroke="#59a7dc"/><path d="M687,485L746,586L763,477Z" fill="#5dabdf" stroke="#5dabdf"/><path d="M763,477L746,586L826,480Z" fill="#58a9de" stroke="#58a9de"/><path d="M826,480L746,586L851,580Z" fill="#50a2da" stroke="#50a2da"/><path d="M826,480L851,580L968,467Z" fill="#51a4db" stroke="#51a4db"/><path d="M968,467L851,580L971,609Z" fill="#469ad6" stroke="#469ad6"/><path d="M968,467L971,609L1011,608Z" fill="#4196d3" stroke="#4196d3"/><path d="M968,467L1011,608L1054,473Z" fill="#469bd6" stroke="#469bd6"/><path d="M1054,473L1011,608L1154,583Z" fill="#3b92d1" stroke="#3b92d1"/><path d="M1054,473L1154,583L1098,469Z" fill="#4197d4" stroke="#4197d4"/><path d="M1098,469L1154,583L1195,502Z" fill="#3b93d2" stroke="#3b93d2"/><path d="M1195,502L1154,583L1244,566Z" fill="#338bcd" stroke="#338bcd"/><path d="M1195,502L1244,566L1309,475Z" fill="#378dce" stroke="#378dce"/><path d="M1309,475L1244,566L1311,606Z" fill="#2e86c9" stroke="#2e86c9"/><path d="M1309,475L1311,606L1380,520Z" fill="#2f85c8" stroke="#2f85c8"/><path d="M1380,520L1311,606L1374,588Z" fill="#297ec4" stroke="#297ec4"/><path d="M1380,520L1374,588L1485,570Z" fill="#277cc3" stroke="#277cc3"/><path d="M1380,520L1485,570L1501,478Z" fill="#2a7fc4" stroke="#2a7fc4"/><path d="M1501,478L1485,570L1572,580Z" fill="#2378c0" stroke="#2378c0"/><path d="M1501,478L1572,580L1600,468Z" fill="#287ac1" stroke="#287ac1"/><path d="M1600,468L1572,580L1647,581Z" fill="#1e72bc" stroke="#1e72bc"/><path d="M1600,468L1647,581L1674,490Z" fill="#2475bd" stroke="#2475bd"/><path d="M1674,490L1647,581L1729,512Z" fill="#2170ba" stroke="#2170ba"/><path d="M1729,512L1647,581L1742,575Z" fill="#1d6ab6" stroke="#1d6ab6"/><path d="M1729,512L1742,575L1845,517Z" fill="#2069b6" stroke="#2069b6"/><path d="M1845,517L1742,575L1820,611Z" fill="#1c62b1" stroke="#1c62b1"/><path d="M1845,517L1820,611L1906,563Z" fill="#1c5faf" stroke="#1c5faf"/><path d="M1845,517L1906,563L1952,474Z" fill="#2363b2" stroke="#2363b2"/><path d="M1952,474L1906,563L1996,497Z" fill="#2461b0" stroke="#2461b0"/><path d="M1996,497L1906,563L2000,590Z" fill="#1d5aac" stroke="#1d5aac"/><path d="M1996,497L2000,590L2038,699Z" fill="#1a50a5" stroke="#1a50a5"/><path d="M-21,574L-66,656L17,648Z" fill="#91bce8" stroke="#91bce8"/><path d="M-21,574L17,648L33,598Z" fill="#91bde9" stroke="#91bde9"/><path d="M33,598L17,648L134,574Z" fill="#8dbce8" stroke="#8dbce8"/><path d="M134,574L17,648L164,693Z" fill="#88b5e3" stroke="#88b5e3"/><path d="M134,574L164,693L207,651Z" fill="#84b2e1" stroke="#84b2e1"/><path d="M134,574L207,651L216,578Z" fill="#85b8e4" stroke="#85b8e4"/><path d="M216,578L207,651L339,577Z" fill="#81b5e2" stroke="#81b5e2"/><path d="M339,577L207,651L310,696Z" fill="#7caedd" stroke="#7caedd"/><path d="M339,577L310,696L377,591Z" fill="#7aafde" stroke="#7aafde"/><path d="M377,591L310,696L422,692Z" fill="#76a8d9" stroke="#76a8d9"/><path d="M377,591L422,692L466,658Z" fill="#71a7d9" stroke="#71a7d9"/><path d="M377,591L466,658L506,562Z" fill="#71addd" stroke="#71addd"/><path d="M506,562L466,658L596,677Z" fill="#67a4d8" stroke="#67a4d8"/><path d="M506,562L596,677L598,566Z" fill="#65a6da" stroke="#65a6da"/><path d="M598,566L596,677L678,600Z" fill="#5ea1d8" stroke="#5ea1d8"/><path d="M678,600L596,677L684,662Z" fill="#599bd4" stroke="#599bd4"/><path d="M678,600L684,662L746,586Z" fill="#559dd6" stroke="#559dd6"/><path d="M746,586L684,662L790,685Z" fill="#5097d2" stroke="#5097d2"/><path d="M746,586L790,685L851,580Z" fill="#4c98d3" stroke="#4c98d3"/><path d="M851,580L790,685L873,696Z" fill="#4790ce" stroke="#4790ce"/><path d="M851,580L873,696L965,664Z" fill="#438dcd" stroke="#438dcd"/><path d="M851,580L965,664L971,609Z" fill="#4290cf" stroke="#4290cf"/><path d="M971,609L965,664L1011,608Z" fill="#3e8bcc" stroke="#3e8bcc"/><path d="M1011,608L965,664L1027,685Z" fill="#3b86c9" stroke="#3b86c9"/><path d="M1011,608L1027,685L1141,667Z" fill="#3683c7" stroke="#3683c7"/><path d="M1011,608L1141,667L1154,583Z" fill="#3586c9" stroke="#3586c9"/><path d="M1154,583L1141,667L1211,651Z" fill="#2f80c6" stroke="#2f80c6"/><path d="M1154,583L1211,651L1244,566Z" fill="#3083c8" stroke="#3083c8"/><path d="M1244,566L1211,651L1311,606Z" fill="#2c7ec4" stroke="#2c7ec4"/><path d="M1311,606L1211,651L1320,648Z" fill="#2979c0" stroke="#2979c0"/><path d="M1311,606L1320,648L1374,588Z" fill="#2878c0" stroke="#2878c0"/><path d="M1374,588L1320,648L1366,698Z" fill="#2572bc" stroke="#2572bc"/><path d="M1374,588L1366,698L1456,681Z" fill="#226eb9" stroke="#226eb9"/><path d="M1374,588L1456,681L1485,570Z" fill="#2272bc" stroke="#2272bc"/><path d="M1485,570L1456,681L1572,580Z" fill="#1f6eba" stroke="#1f6eba"/><path d="M1572,580L1456,681L1602,669Z" fill="#1b66b4" stroke="#1b66b4"/><path d="M1572,580L1602,669L1647,581Z" fill="#1968b5" stroke="#1968b5"/><path d="M1647,581L1602,669L1662,684Z" fill="#1760b0" stroke="#1760b0"/><path d="M1647,581L1662,684L1742,575Z" fill="#1962b1" stroke="#1962b1"/><path d="M1742,575L1662,684L1735,697Z" fill="#175aac" stroke="#175aac"/><path d="M1742,575L1735,697L1820,611Z" fill="#185bac" stroke="#185bac"/><path d="M1820,611L1735,697L1868,698Z" fill="#1651a6" stroke="#1651a6"/><path d="M1820,611L1868,698L1906,563Z" fill="#1855a9" stroke="#1855a9"/><path d="M1906,563L1868,698L1964,663Z" fill="#174fa5" stroke="#174fa5"/><path d="M1906,563L1964,663L2000,590Z" fill="#1a52a7" stroke="#1a52a7"/><path d="M2000,590L1964,663L2038,699Z" fill="#1748a0" stroke="#1748a0"/><path d="M-66,656L-65,971L-53,747Z" fill="#89a2d6" stroke="#89a2d6"/><path d="M-66,656L-53,747L17,648Z" fill="#8eb2e2" stroke="#8eb2e2"/><path d="M17,648L-53,747L42,735Z" fill="#8aaddf" stroke="#8aaddf"/><path d="M17,648L42,735L164,693Z" fill="#87adde" stroke="#87adde"/><path d="M164,693L42,735L118,784Z" fill="#82a4d8" stroke="#82a4d8"/><path d="M164,693L118,784L229,778Z" fill="#7da0d5" stroke="#7da0d5"/><path d="M164,693L229,778L207,651Z" fill="#7ea6d9" stroke="#7ea6d9"/><path d="M207,651L229,778L310,696Z" fill="#7ba4d7" stroke="#7ba4d7"/><path d="M310,696L229,778L327,740Z" fill="#769ed3" stroke="#769ed3"/><path d="M310,696L327,740L422,692Z" fill="#74a0d4" stroke="#74a0d4"/><path d="M422,692L327,740L413,755Z" fill="#709cd1" stroke="#709cd1"/><path d="M422,692L413,755L498,789Z" fill="#6996ce" stroke="#6996ce"/><path d="M422,692L498,789L466,658Z" fill="#699ad1" stroke="#699ad1"/><path d="M466,658L498,789L596,677Z" fill="#6398d0" stroke="#6398d0"/><path d="M596,677L498,789L584,778Z" fill="#5d8fcb" stroke="#5d8fcb"/><path d="M596,677L584,778L697,787Z" fill="#558cc9" stroke="#558cc9"/><path d="M596,677L697,787L684,662Z" fill="#5491cd" stroke="#5491cd"/><path d="M684,662L697,787L790,685Z" fill="#4d8dcb" stroke="#4d8dcb"/><path d="M790,685L697,787L771,783Z" fill="#4785c6" stroke="#4785c6"/><path d="M790,685L771,783L828,767Z" fill="#4483c6" stroke="#4483c6"/><path d="M790,685L828,767L873,696Z" fill="#4486c8" stroke="#4486c8"/><path d="M873,696L828,767L973,789Z" fill="#3c7dc2" stroke="#3c7dc2"/><path d="M873,696L973,789L965,664Z" fill="#3b80c4" stroke="#3b80c4"/><path d="M965,664L973,789L1027,685Z" fill="#387dc3" stroke="#387dc3"/><path d="M1027,685L973,789L1055,772Z" fill="#3376be" stroke="#3376be"/><path d="M1027,685L1055,772L1141,667Z" fill="#3279c1" stroke="#3279c1"/><path d="M1141,667L1055,772L1155,789Z" fill="#2c71bb" stroke="#2c71bb"/><path d="M1141,667L1155,789L1229,747Z" fill="#296fba" stroke="#296fba"/><path d="M1141,667L1229,747L1211,651Z" fill="#2b75be" stroke="#2b75be"/><path d="M1211,651L1229,747L1320,648Z" fill="#2872bc" stroke="#2872bc"/><path d="M1320,648L1229,747L1332,750Z" fill="#246bb7" stroke="#246bb7"/><path d="M1320,648L1332,750L1366,698Z" fill="#226ab7" stroke="#226ab7"/><path d="M1366,698L1332,750L1396,790Z" fill="#1e61b1" stroke="#1e61b1"/><path d="M1366,698L1396,790L1456,681Z" fill="#1d62b1" stroke="#1d62b1"/><path d="M1456,681L1396,790L1509,772Z" fill="#195bad" stroke="#195bad"/><path d="M1456,681L1509,772L1559,757Z" fill="#175aab" stroke="#175aab"/><path d="M1456,681L1559,757L1602,669Z" fill="#175dae" stroke="#175dae"/><path d="M1602,669L1559,757L1663,774Z" fill="#1254a8" stroke="#1254a8"/><path d="M1602,669L1663,774L1662,684Z" fill="#1355a9" stroke="#1355a9"/><path d="M1662,684L1663,774L1735,697Z" fill="#1251a6" stroke="#1251a6"/><path d="M1735,697L1663,774L1734,780Z" fill="#104aa2" stroke="#104aa2"/><path d="M1735,697L1734,780L1827,764Z" fill="#11479f" stroke="#11479f"/><path d="M1735,697L1827,764L1868,698Z" fill="#1249a0" stroke="#1249a0"/><path d="M1868,698L1827,764L1930,737Z" fill="#12439c" stroke="#12439c"/><path d="M1868,698L1930,737L1964,663Z" fill="#14459e" stroke="#14459e"/><path d="M1964,663L1930,737L2038,699Z" fill="#14429b" stroke="#14429b"/><path d="M2038,699L1930,737L2049,750Z" fill="#123b97" stroke="#123b97"/><path d="M-53,747L-65,971L-45,866Z" fill="#8496cf" stroke="#8496cf"/><path d="M-53,747L-45,866L42,735Z" fill="#87a2d7" stroke="#87a2d7"/><path d="M42,735L-45,866L31,879Z" fill="#839ad2" stroke="#839ad2"/><path d="M42,735L31,879L118,784Z" fill="#819cd3" stroke="#819cd3"/><path d="M118,784L31,879L136,857Z" fill="#7c94ce" stroke="#7c94ce"/><path d="M118,784L136,857L204,826Z" fill="#7995ce" stroke="#7995ce"/><path d="M118,784L204,826L229,778Z" fill="#7999d0" stroke="#7999d0"/><path d="M229,778L204,826L300,831Z" fill="#7493cc" stroke="#7493cc"/><path d="M229,778L300,831L327,740Z" fill="#7397ce" stroke="#7397ce"/><path d="M327,740L300,831L413,755Z" fill="#7096cd" stroke="#7096cd"/><path d="M413,755L300,831L434,851Z" fill="#6b8ec8" stroke="#6b8ec8"/><path d="M413,755L434,851L498,789Z" fill="#658dc8" stroke="#658dc8"/><path d="M498,789L434,851L506,867Z" fill="#6086c3" stroke="#6086c3"/><path d="M498,789L506,867L574,833Z" fill="#5b84c3" stroke="#5b84c3"/><path d="M498,789L574,833L584,778Z" fill="#5a87c6" stroke="#5a87c6"/><path d="M584,778L574,833L656,836Z" fill="#5382c3" stroke="#5382c3"/><path d="M584,778L656,836L697,787Z" fill="#5082c3" stroke="#5082c3"/><path d="M697,787L656,836L738,876Z" fill="#487bbf" stroke="#487bbf"/><path d="M697,787L738,876L771,783Z" fill="#457bc0" stroke="#457bc0"/><path d="M771,783L738,876L847,852Z" fill="#3f75bc" stroke="#3f75bc"/><path d="M771,783L847,852L828,767Z" fill="#3f79bf" stroke="#3f79bf"/><path d="M828,767L847,852L925,840Z" fill="#3a73bc" stroke="#3a73bc"/><path d="M828,767L925,840L973,789Z" fill="#3874bc" stroke="#3874bc"/><path d="M973,789L925,840L1058,855Z" fill="#316bb7" stroke="#316bb7"/><path d="M973,789L1058,855L1055,772Z" fill="#2f6cb8" stroke="#2f6cb8"/><path d="M1055,772L1058,855L1132,825Z" fill="#2a67b5" stroke="#2a67b5"/><path d="M1055,772L1132,825L1155,789Z" fill="#2969b6" stroke="#2969b6"/><path d="M1155,789L1132,825L1186,862Z" fill="#2461b2" stroke="#2461b2"/><path d="M1155,789L1186,862L1229,747Z" fill="#2463b3" stroke="#2463b3"/><path d="M1229,747L1186,862L1305,848Z" fill="#205dae" stroke="#205dae"/><path d="M1229,747L1305,848L1332,750Z" fill="#1f60b0" stroke="#1f60b0"/><path d="M1332,750L1305,848L1396,790Z" fill="#1c5aac" stroke="#1c5aac"/><path d="M1396,790L1305,848L1407,859Z" fill="#1853a7" stroke="#1853a7"/><path d="M1396,790L1407,859L1509,772Z" fill="#1653a7" stroke="#1653a7"/><path d="M1509,772L1407,859L1499,885Z" fill="#124ba3" stroke="#124ba3"/><path d="M1509,772L1499,885L1602,835Z" fill="#0f48a0" stroke="#0f48a0"/><path d="M1509,772L1602,835L1559,757Z" fill="#114ea4" stroke="#114ea4"/><path d="M1559,757L1602,835L1663,774Z" fill="#0e4ba2" stroke="#0e4ba2"/><path d="M1663,774L1602,835L1670,867Z" fill="#0c429d" stroke="#0c429d"/><path d="M1663,774L1670,867L1734,780Z" fill="#0d429c" stroke="#0d429c"/><path d="M1734,780L1670,867L1758,866Z" fill="#0b3b98" stroke="#0b3b98"/><path d="M1734,780L1758,866L1827,764Z" fill="#0d3e99" stroke="#0d3e99"/><path d="M1827,764L1758,866L1864,832Z" fill="#0c3896" stroke="#0c3896"/><path d="M1827,764L1864,832L1930,737Z" fill="#0f3b98" stroke="#0f3b98"/><path d="M1930,737L1864,832L1949,826Z" fill="#0d3693" stroke="#0d3693"/><path d="M1930,737L1949,826L2049,750Z" fill="#0f3694" stroke="#0f3694"/><path d="M2049,750L1949,826L2039,883Z" fill="#0c2c8d" stroke="#0c2c8d"/><path d="M2049,750L2039,883L2042,1046Z" fill="#071e84" stroke="#071e84"/><path d="M-45,866L-65,971L31,879Z" fill="#808eca" stroke="#808eca"/><path d="M31,879L-65,971L51,950Z" fill="#7c89c7" stroke="#7c89c7"/><path d="M31,879L51,950L146,928Z" fill="#7888c6" stroke="#7888c6"/><path d="M31,879L146,928L136,857Z" fill="#788cc8" stroke="#788cc8"/><path d="M136,857L146,928L204,826Z" fill="#768dc9" stroke="#768dc9"/><path d="M204,826L146,928L217,941Z" fill="#7287c5" stroke="#7287c5"/><path d="M204,826L217,941L300,831Z" fill="#718bc7" stroke="#718bc7"/><path d="M300,831L217,941L300,936Z" fill="#6d84c2" stroke="#6d84c2"/><path d="M300,831L300,936L434,851Z" fill="#6a86c2" stroke="#6a86c2"/><path d="M434,851L300,936L393,958Z" fill="#657ebd" stroke="#657ebd"/><path d="M434,851L393,958L519,916Z" fill="#5e7bbc" stroke="#5e7bbc"/><path d="M434,851L519,916L506,867Z" fill="#5c7ebe" stroke="#5c7ebe"/><path d="M506,867L519,916L574,833Z" fill="#577dbe" stroke="#577dbe"/><path d="M574,833L519,916L569,931Z" fill="#5478bb" stroke="#5478bb"/><path d="M574,833L569,931L656,836Z" fill="#517abd" stroke="#517abd"/><path d="M656,836L569,931L646,957Z" fill="#4c72b8" stroke="#4c72b8"/><path d="M656,836L646,957L738,876Z" fill="#4772b9" stroke="#4772b9"/><path d="M738,876L646,957L777,941Z" fill="#406ab4" stroke="#406ab4"/><path d="M738,876L777,941L847,852Z" fill="#3c6cb7" stroke="#3c6cb7"/><path d="M847,852L777,941L856,966Z" fill="#3765b2" stroke="#3765b2"/><path d="M847,852L856,966L934,931Z" fill="#3363b1" stroke="#3363b1"/><path d="M847,852L934,931L925,840Z" fill="#3468b4" stroke="#3468b4"/><path d="M925,840L934,931L1058,855Z" fill="#2f64b2" stroke="#2f64b2"/><path d="M1058,855L934,931L1049,941Z" fill="#295cad" stroke="#295cad"/><path d="M1058,855L1049,941L1135,923Z" fill="#2559ab" stroke="#2559ab"/><path d="M1058,855L1135,923L1132,825Z" fill="#255dae" stroke="#255dae"/><path d="M1132,825L1135,923L1186,862Z" fill="#215bad" stroke="#215bad"/><path d="M1186,862L1135,923L1241,958Z" fill="#1d51a7" stroke="#1d51a7"/><path d="M1186,862L1241,958L1305,848Z" fill="#1b51a7" stroke="#1b51a7"/><path d="M1305,848L1241,958L1303,957Z" fill="#174aa2" stroke="#174aa2"/><path d="M1305,848L1303,957L1407,859Z" fill="#164ca3" stroke="#164ca3"/><path d="M1407,859L1303,957L1416,934Z" fill="#12459e" stroke="#12459e"/><path d="M1407,859L1416,934L1499,885Z" fill="#10449e" stroke="#10449e"/><path d="M1499,885L1416,934L1510,943Z" fill="#0d3e99" stroke="#0d3e99"/><path d="M1499,885L1510,943L1553,933Z" fill="#0b3b97" stroke="#0b3b97"/><path d="M1499,885L1553,933L1602,835Z" fill="#0b3f9a" stroke="#0b3f9a"/><path d="M1602,835L1553,933L1670,867Z" fill="#083c98" stroke="#083c98"/><path d="M1670,867L1553,933L1683,926Z" fill="#063594" stroke="#063594"/><path d="M1670,867L1683,926L1758,866Z" fill="#083593" stroke="#083593"/><path d="M1758,866L1683,926L1728,959Z" fill="#062e8f" stroke="#062e8f"/><path d="M1758,866L1728,959L1859,945Z" fill="#062a8c" stroke="#062a8c"/><path d="M1758,866L1859,945L1864,832Z" fill="#082e8f" stroke="#082e8f"/><path d="M1864,832L1859,945L1916,921Z" fill="#07278a" stroke="#07278a"/><path d="M1864,832L1916,921L1949,826Z" fill="#0a2c8d" stroke="#0a2c8d"/><path d="M1949,826L1916,921L2039,883Z" fill="#082589" stroke="#082589"/><path d="M2039,883L1916,921L2032,923Z" fill="#061e84" stroke="#061e84"/><path d="M2039,883L2032,923L2042,1046Z" fill="#04157e" stroke="#04157e"/><path d="M-65,971L15,1057L-18,1010Z" fill="#797dbe" stroke="#797dbe"/><path d="M-65,971L-18,1010L51,950Z" fill="#7a82c2" stroke="#7a82c2"/><path d="M51,950L-18,1010L15,1057Z" fill="#777dbf" stroke="#777dbf"/><path d="M51,950L15,1057L118,1052Z" fill="#7479bc" stroke="#7479bc"/><path d="M51,950L118,1052L146,928Z" fill="#737ebf" stroke="#737ebf"/><path d="M146,928L118,1052L217,941Z" fill="#6f7cbe" stroke="#6f7cbe"/><path d="M217,941L118,1052L221,1057Z" fill="#6c74b8" stroke="#6c74b8"/><path d="M217,941L221,1057L287,1058Z" fill="#6872b6" stroke="#6872b6"/><path d="M217,941L287,1058L300,936Z" fill="#6878ba" stroke="#6878ba"/><path d="M300,936L287,1058L393,958Z" fill="#6475b8" stroke="#6475b8"/><path d="M393,958L287,1058L416,1037Z" fill="#606eb2" stroke="#606eb2"/><path d="M393,958L416,1037L486,1035Z" fill="#5a6cb2" stroke="#5a6cb2"/><path d="M393,958L486,1035L519,916Z" fill="#5870b5" stroke="#5870b5"/><path d="M519,916L486,1035L569,931Z" fill="#536fb5" stroke="#536fb5"/><path d="M569,931L486,1035L592,1062Z" fill="#4d66af" stroke="#4d66af"/><path d="M569,931L592,1062L646,957Z" fill="#4967b1" stroke="#4967b1"/><path d="M646,957L592,1062L699,1045Z" fill="#435fac" stroke="#435fac"/><path d="M646,957L699,1045L777,941Z" fill="#3e62af" stroke="#3e62af"/><path d="M777,941L699,1045L788,1024Z" fill="#375bab" stroke="#375bab"/><path d="M777,941L788,1024L856,966Z" fill="#355dac" stroke="#355dac"/><path d="M856,966L788,1024L830,1055Z" fill="#3156a8" stroke="#3156a8"/><path d="M856,966L830,1055L923,1038Z" fill="#2e52a6" stroke="#2e52a6"/><path d="M856,966L923,1038L934,931Z" fill="#2d57a9" stroke="#2d57a9"/><path d="M934,931L923,1038L1049,941Z" fill="#2955a8" stroke="#2955a8"/><path d="M1049,941L923,1038L1062,1048Z" fill="#234ca2" stroke="#234ca2"/><path d="M1049,941L1062,1048L1099,1050Z" fill="#1f48a0" stroke="#1f48a0"/><path d="M1049,941L1099,1050L1135,923Z" fill="#204ea4" stroke="#204ea4"/><path d="M1135,923L1099,1050L1185,1014Z" fill="#1a47a0" stroke="#1a47a0"/><path d="M1135,923L1185,1014L1241,958Z" fill="#1949a1" stroke="#1949a1"/><path d="M1241,958L1185,1014L1334,1024Z" fill="#143f9a" stroke="#143f9a"/><path d="M1241,958L1334,1024L1303,957Z" fill="#13409b" stroke="#13409b"/><path d="M1303,957L1334,1024L1416,934Z" fill="#103e99" stroke="#103e99"/><path d="M1416,934L1334,1024L1408,1053Z" fill="#0c3694" stroke="#0c3694"/><path d="M1416,934L1408,1053L1511,1009Z" fill="#0a3392" stroke="#0a3392"/><path d="M1416,934L1511,1009L1510,943Z" fill="#0a3795" stroke="#0a3795"/><path d="M1510,943L1511,1009L1553,933Z" fill="#083493" stroke="#083493"/><path d="M1553,933L1511,1009L1584,1053Z" fill="#042c8e" stroke="#042c8e"/><path d="M1553,933L1584,1053L1648,1034Z" fill="#01288b" stroke="#01288b"/><path d="M1553,933L1648,1034L1683,926Z" fill="#032d8e" stroke="#032d8e"/><path d="M1683,926L1648,1034L1728,959Z" fill="#02288b" stroke="#02288b"/><path d="M1728,959L1648,1034L1782,1017Z" fill="#002186" stroke="#002186"/><path d="M1728,959L1782,1017L1859,945Z" fill="#022186" stroke="#022186"/><path d="M1859,945L1782,1017L1839,1056Z" fill="#001a81" stroke="#001a81"/><path d="M1859,945L1839,1056L1906,1060Z" fill="#00157e" stroke="#00157e"/><path d="M1859,945L1906,1060L1916,921Z" fill="#021a81" stroke="#021a81"/><path d="M1916,921L1906,1060L2042,1046Z" fill="#00117b" stroke="#00117b"/><path d="M1916,921L2042,1046L2032,923Z" fill="#03157e" stroke="#03157e"/><path d="M15,1057L592,1062L287,1058Z" fill="#646fb0" stroke="#646fb0"/><path d="M15,1057L287,1058L221,1057Z" fill="#6c73b4" stroke="#6c73b4"/><path d="M15,1057L221,1057L118,1052Z" fill="#7075b6" stroke="#7075b6"/><path d="M287,1058L592,1062L416,1037Z" fill="#5a69ad" stroke="#5a69ad"/><path d="M416,1037L592,1062L486,1035Z" fill="#5366ad" stroke="#5366ad"/><path d="M592,1062L1906,1060L1408,1053Z" fill="#113892" stroke="#113892"/><path d="M592,1062L1408,1053L830,1055Z" fill="#294da0" stroke="#294da0"/><path d="M592,1062L830,1055L699,1045Z" fill="#3c5ba7" stroke="#3c5ba7"/><path d="M699,1045L830,1055L788,1024Z" fill="#3557a7" stroke="#3557a7"/><path d="M830,1055L1408,1053L1099,1050Z" fill="#1c449b" stroke="#1c449b"/><path d="M830,1055L1099,1050L1062,1048Z" fill="#244a9e" stroke="#244a9e"/><path d="M830,1055L1062,1048L923,1038Z" fill="#294da1" stroke="#294da1"/><path d="M1099,1050L1408,1053L1334,1024Z" fill="#123995" stroke="#123995"/><path d="M1099,1050L1334,1024L1185,1014Z" fill="#163e99" stroke="#163e99"/><path d="M1408,1053L1906,1060L1584,1053Z" fill="#002384" stroke="#002384"/><path d="M1408,1053L1584,1053L1511,1009Z" fill="#062b8c" stroke="#062b8c"/><path d="M1584,1053L1906,1060L1839,1056Z" fill="#00197e" stroke="#00197e"/><path d="M1584,1053L1839,1056L1648,1034Z" fill="#001f83" stroke="#001f83"/><path d="M1648,1034L1839,1056L1782,1017Z" fill="#001b81" stroke="#001b81"/></g></svg>